# xmcd CD database file
#
# Track frame offsets:
#	150
#	11490
#	28750
#	44897
#	59517
#	74342
#	95450
#	111362
#	128822
#	142965
#	161257
#	174005
#
# Disc length: 2567 seconds
#
# Revision: 2
# Processed by: cddbd v1.5.2PL0 Copyright (c) Steve Scherf et al.
# Submitted via: CDex 1.51
#
DISCID=a10a050c
DTITLE=Donnie Fritts - Everybody's Got A Song
DYEAR=2010
DGENRE=Folk
TTITLE0=Why Is My Day So Long
TTITLE1=Hello Memphis
TTITLE2=Short End of the Stick
TTITLE3=A Damn Good Country Song
TTITLE4=Breakfast In Bed
TTITLE5=Ten Foot Pole
TTITLE6=The Oldest Baby In The World
TTITLE7=If You Say So
TTITLE8=We Had It All
TTITLE9=Better Him Than Me
TTITLE10=Star Of The Show
TTITLE11=Everybody's Got A Song
EXTD=YEAR: 2010
EXTT0=
EXTT1=
EXTT2=
EXTT3=
EXTT4=
EXTT5=
EXTT6=
EXTT7=
EXTT8=
EXTT9=
EXTT10=
EXTT11=
PLAYORDER=
